<?xml version="1.0" encoding="UTF-8"?>
<svg id="Capa_2" data-name="Capa 2" xmlns="http://www.w3.org/2000/svg" viewBox="0 0 294.26 294.28">
  <g id="Capa_1-2" data-name="Capa 1">
    <g>
      <polygon points="22.94 141.65 22.94 164.6 11.97 164.6 11.97 200.5 0 200.5 0 141.65 22.94 141.65"/>
      <rect x="70.8" y="164.58" width="12" height="12"/>
      <g>
        <path d="M0,211.48h82.79v82.79H0v-82.79ZM70.82,223.44H11.97v58.85h58.85v-58.85Z"/>
        <rect x="22.94" y="235.41" width="35.91" height="35.91"/>
      </g>
      <path d="M188.5,117.72v-11.99h12v11.99c-4,.02-8.01-.05-12,0Z"/>
      <path d="M200.5,117.72c7.62-.03,15.29.02,22.93,0v-11.98s-11.98.01-11.98.01v-11.97h59.85c.04,3.98-.05,7.99,0,11.97-11.95-.17-23.96.13-35.91,0v11.97h23.94v11.97h-35.91c-.07,7.63.09,15.31,0,22.94-3.98.05-8-.04-11.97,0,0,3.98,0,7.99,0,11.97-7.63.09-15.31.03-22.94,0,.03-3.98-.02-8,0-11.97h11.98s0-10.97,0-10.97h-23.94v10.98s-11.97-.01-11.97-.01v11.98c7.97.01,15.98-.04,23.94,0-.03,3.98.02,8,0,11.97h-11.98c-.03,3.97.05,7.99,0,11.96-3.98-.01-7.99.05-11.97,0-.05-3.98.03-8,0-11.97-3.98.04-8-.04-11.97,0-.03-3.98.02-8,0-11.97h-10.98s-.01-11.39-.01-11.39l10.99-.57c.04-3.65-.07-7.33,0-10.98,3.98-.05,8,.03,11.97,0,0-3.98,0-7.99,0-11.97,3.98-.03,8,.02,11.97,0v-11.98c3.97-.03,7.99.06,11.95,0v11.99h12v-11.99Z"/>
      <path d="M271.3,105.75c3.65.05,7.33-.04,10.98,0v11.98s11.96,0,11.96,0v34.91h-11.97s-.01,11.39-.01,11.39l11.99.57v23.94h-11.97s.01-11.97.01-11.97h-10.98s0-23.93,0-23.93c-3.98-.04-7.99.05-11.97,0,.05-3.64-.04-7.33,0-10.97h22.94v-11.97s-10.98.01-10.98.01c-.06-7.96.1-15.98,0-23.94Z"/>
      <path d="M22.94,105.75c0-3.98,0-7.99,0-11.97h59.85c.04,3.98-.05,7.99,0,11.97-1.87.02-11.83-.47-11.99.57v11.4c3.99.05,8.01-.08,11.99,0,.02,3.98.02,7.99,0,11.97-3.98.07-8-.05-11.97,0,.04,3.98-.04,8,0,11.97-3.98.05-8-.04-11.97,0,.15,15.61-.19,31.28,0,46.88,7.96-.1,15.98.08,23.94,0v11.97h-23.94c-.04-3.98.05-7.99,0-11.97-3.98.05-8-.03-11.97,0v11.98s-11.97,0-11.97,0v-11.98s-11.97.01-11.97.01v-11.97h23.94v-11.97s-11.97.01-11.97.01v-11.98s11.99-.57,11.99-.57v-10.4s-11.99.01-11.99.01c-.01-3.98.03-8,0-11.97,7.97-.03,15.98.02,23.94,0v-11.98s-11.98.01-11.98.01v-11.98c-7.95-.07-15.97.12-23.93,0Z"/>
      <path d="M34.91,129.68c-11.62.04-23.29-.03-34.91,0v-35.91h11.97s-.01,11.97-.01,11.97c3.65.03,7.33-.06,10.98,0v11.97s11.97-.01,11.97-.01c.01,3.98-.03,8,0,11.97Z"/>
      <path d="M176.56,282.29v11.99h-12v-11.99c4-.05,8.01.01,12,0Z"/>
      <path d="M176.55,34.93c3.98.05,8-.04,11.97,0v11.97c-3.98-.03-8,.02-11.98,0-.03-3.98.06-8,0-11.97Z"/>
      <path d="M152.61,22.96c-.03-2.41-.56-22.79.57-22.96h11.4c.01,7.65-.04,15.32,0,22.96-3.98.02-7.99-.02-11.97,0Z"/>
      <path d="M82.79,141.65c-.05,3.65.04,7.33,0,10.98h-11.4c-1.05-.14-.55-9.18-.57-10.98,3.97-.05,8-.06,11.97,0Z"/>
      <path d="M259.34,211.46h34.93v12h-34.93c.02-4-.02-8.01,0-12Z"/>
      <path d="M235.38,152.63v-10.99h12v10.99c-4-.02-8.01-.02-12,0Z"/>
      <path d="M176.55,22.96c.05-3.65-.04-7.33,0-10.98h11.98s-.01-11.97-.01-11.97h11.97v22.95c-7.96.02-15.97-.03-23.94,0-.06,3.97-.05,8,0,11.97-3.98-.05-7.99.05-11.97,0-.02-3.98.02-7.99,0-11.97,3.98-.02,7.99.02,11.97,0Z"/>
      <path d="M235.38,152.63v11.99h12v-11.99c3.96.02,7.97-.05,11.95,0-.11,7.96.08,15.98,0,23.94h-11.97s0,23.93,0,23.93c3.98,0,7.99,0,11.97,0,.05-3.98-.04-8,0-11.97h11.98s0,11.98,0,11.98h-11.97c-.05,3.64.02,7.32,0,10.95h-11.99v12h11.99c-.02,3.96.05,7.97,0,11.95-3.98.05-8-.03-11.97,0v11.98s11.98,0,11.98,0c.03-3.98-.06-8,0-11.97,11.62-.14,23.29.11,34.91,0v58.85h-82.79v-11.97c-11.62.04-23.29-.04-34.89,0v-10.99h-12v10.99c-3.96.05-7.98-.04-11.96,0v11.98s-10.97,0-10.97,0v-22.94h10.98s.01-11.39.01-11.39l-10.99-.57c-.03-3.98.05-8,0-11.97,7.63.1,15.31-.07,22.95,0v11.97s35.9,0,35.9,0v-11.97h-23.94c-.04-3.98.05-7.99,0-11.97,3.98,0,7.99,0,11.97,0v-23.94c-3.98-.02-7.99.03-11.97,0,.01-7.63-.09-15.31,0-22.94,15.61.06,31.27-.05,46.88,0v-11.98s-11.98.01-11.98.01c0-3.98,0-7.99,0-11.97,3.98-.05,8,.03,11.97,0,.03-3.98-.05-8,0-11.97,3.98-.05,7.99.02,11.95,0ZM235.4,200.5h-34.91v34.91h34.91v-34.91ZM211.46,271.32h35.91v-11.97s-11.97.01-11.97.01v-11.98s-11.39-.01-11.39-.01l-.57,11.99h-11.98s0,11.96,0,11.96ZM282.28,259.35h-10.98s.01,11.97.01,11.97h-11.98s0,10.97,0,10.97h22.94v-22.94Z"/>
      <path d="M105.73,93.78c-3.98-.03-7.99.02-11.97,0V22.96h11.97s0-10.97,0-10.97h35.91c.03,3.64-.04,7.33,0,10.97-7.97.03-15.98-.02-23.94,0v11.98s-11.97-.01-11.97-.01v11.97h23.94v-11.97s11.97.01,11.97.01c-.04-3.98.04-8,0-11.97,3.65-.01,7.32.02,10.97,0,.05,3.98-.03,8,0,11.97,3.98.03,8-.06,11.97,0,.03,7.96-.02,15.97,0,23.94h23.94c0-3.98,0-7.99,0-11.97,3.98.03,7.99-.02,11.97,0v46.88h-11.97v-22.94h-11.97s.01,11.97.01,11.97h-11.4s-.57-11.98-.57-11.98h-11.98s-.57,11.99-.57,11.99h-10.4s.01-11.99.01-11.99c-3.98,0-7.99,0-11.97,0v11.97s-11.97,0-11.97,0v-11.98c3.98,0,7.99,0,11.97,0,0-3.98,0-7.99,0-11.97h-23.94c-.11,11.62.14,23.29,0,34.91,3.98.03,8-.02,11.97,0v11.98s11.97-.01,11.97-.01c.06,7.96-.1,15.98,0,23.94,3.98,0,7.99,0,11.97,0v-35.91h34.91v11.97h-23.94v11.97s11.97-.01,11.97-.01c0,3.98,0,7.99,0,11.97-3.98.03-8-.02-11.97,0-.05,3.98.08,8,0,11.97-7.63.09-15.31-.07-22.95,0-.03-3.98.05-8,0-11.97h-11.97s.01-11.97.01-11.97h-11.98c.11,11.62-.14,23.3,0,34.92,3.98.03,8-.02,11.97,0v11.98s-11.98,0-11.98,0c-.03-3.98.05-8,0-11.97-3.98-.03-8,.02-11.97,0v-10.98c-3.64-.03-7.32.06-10.97,0,.06-3.98-.02-7.99,0-11.97,1.81-.03,10.83.48,10.99-.57v-11.4c-3.66-.04-7.34.07-10.99,0-.02-3.98.05-7.99,0-11.97,7.63-.09,15.31.06,22.95,0,.03-3.98-.05-8,0-11.97ZM152.63,46.88h-11.01v12h11.01v-12Z"/>
      <path d="M152.61,176.56c.03,3.98-.02,8,0,11.97,3.98.03,8-.06,11.97,0,.09,7.63-.07,15.31,0,22.95,3.98.02,8-.03,11.97,0-.01,7.96-.1,15.98,0,23.94h-11.97s0-11.97,0-11.97h-22.94c.07,7.96-.1,15.98,0,23.94-3.98-.05-7.99.04-11.97,0v-23.94h-11.97s.01,11.97.01,11.97l-11.99.57v11.4s11.99-.01,11.99-.01v11.98s11.96,0,11.96,0v34.91h-11.97s.01-11.97.01-11.97c-3.98,0-7.99,0-11.97,0,.05,3.98-.03,8,0,11.97h-11.98s0-11.98,0-11.98c3.98,0,7.99,0,11.97,0-.04-3.65.03-7.33,0-10.98h-11.97s0-47.87,0-47.87h11.97c-.04-3.97.04-7.99,0-11.97-3.98,0-8,0-11.97,0v-10.98s11.98,0,11.98,0c.03,3.65-.05,7.33,0,10.98,3.98,0,8,0,11.97,0l.57-10.99h11.4s0,10.99,0,10.99h22.94v-10.98s-10.97,0-10.97,0v-23.94c3.64-.03,7.33.04,10.97,0Z"/>
      <rect x="93.76" y="176.56" width="23.94" height="11.97"/>
      <rect x="211.44" y="211.46" width="12" height="12"/>
      <path d="M294.25.02v82.79h-82.79V.02h82.79ZM223.43,11.99v58.85h58.85V11.99h-58.85Z"/>
      <rect x="235.4" y="22.96" width="35.91" height="35.91"/>
      <path d="M82.79.02v82.79H0V.02h82.79ZM11.97,11.99v58.85h58.85V11.99H11.97Z"/>
      <rect x="22.94" y="22.96" width="35.91" height="35.91"/>
    </g>
  </g>
</svg>