<svg xmlns="http://www.w3.org/2000/svg" viewBox="0 0 62.98 14.06"><g id="Capa_2" data-name="Capa 2"><g id="Capa_1-2" data-name="Capa 1"><path d="M48.25,10.58c0,1,0,2,0,2.94,0,.26-.08.33-.33.31-.41,0-.83,0-1.24,0-.24,0-.32-.05-.32-.31,0-1.8,0-3.61,0-5.41a2.79,2.79,0,0,0-.17-1,1.36,1.36,0,0,0-1.38-.93,2.45,2.45,0,0,0-2.61,2.51c0,1.61,0,3.22,0,4.84,0,.25,0,.35-.33.34-.44,0-.87,0-1.31,0-.19,0-.26,0-.26-.24V4.76c0-.19.06-.26.25-.25h1c.19,0,.27.06.29.25s.06.31.08.46.08.21.23.08a3.39,3.39,0,0,1,1.86-.9,3.51,3.51,0,0,1,3.14.78A3.43,3.43,0,0,1,48.13,7a8.58,8.58,0,0,1,.12,1.68Z"/><path d="M5.1,4.31a4.46,4.46,0,0,1,2.45.83.9.9,0,0,1,.3,1.28.88.88,0,0,1-1.28.2A3.17,3.17,0,0,0,3,6.76a3.08,3.08,0,0,0-1,2.8,2.72,2.72,0,0,0,1.93,2.53,3.08,3.08,0,0,0,3.14-.74c.35-.32.35-.32.64.05l.69.89c.08.1.1.16,0,.27A4.94,4.94,0,0,1,1,12.29a5,5,0,0,1-1-2.45A4.81,4.81,0,0,1,1.78,5.33,5,5,0,0,1,5.1,4.31Z"/><path d="M61.13,13.88a1.41,1.41,0,0,1-.67-2.22A1.45,1.45,0,0,1,62,11.22a1.34,1.34,0,0,1,1,1.15,1.37,1.37,0,0,1-.72,1.4l-.21.11A1.3,1.3,0,0,1,61.13,13.88Z"/><path d="M61.13,13.88a2.32,2.32,0,0,0,.91,0A1,1,0,0,1,61.13,13.88Z"/><path d="M28.65,6.9V6c0-1.91,0-3.82,0-5.73,0-.21-.05-.29-.28-.28-.44,0-.89,0-1.34,0-.24,0-.28.07-.28.3,0,1.59,0,3.18,0,4.78,0,.07,0,.17-.05.21s-.12,0-.17-.09a4.43,4.43,0,0,0-2.5-.86A4.46,4.46,0,0,0,20.1,6.12a5.08,5.08,0,0,0-.8,4.4A4.52,4.52,0,0,0,24.14,14,4.39,4.39,0,0,0,26.79,13c.13-.11.17-.07.19.08s.05.4.07.6.07.21.23.2c.36,0,.72,0,1.08,0s.3-.08.3-.31C28.65,11.31,28.65,9.11,28.65,6.9Zm-2.12,3.65a2.59,2.59,0,0,1-2.38,1.64A2.85,2.85,0,0,1,21,9.46,3,3,0,0,1,22.16,6.7a2.88,2.88,0,0,1,2.95-.31,2.66,2.66,0,0,1,1.65,2.26A3.34,3.34,0,0,1,26.53,10.55Z"/><path d="M38.9,7.85a4.09,4.09,0,0,0-1.54-2.77,4.24,4.24,0,0,0-3.07-.76A4.33,4.33,0,0,0,31.5,5.63a4.93,4.93,0,0,0-1.38,4.06,4.59,4.59,0,0,0,4.6,4.37,4.92,4.92,0,0,0,3.8-1.5c.13-.12.11-.2,0-.32-.27-.32-.52-.66-.78-1s-.22-.27-.44,0a3.17,3.17,0,0,1-2.08,1,2.88,2.88,0,0,1-3.1-2c-.07-.22,0-.26.2-.26h6.28c.19,0,.28,0,.3-.26A7.18,7.18,0,0,0,38.9,7.85Zm-2.07.4H32.4c-.3,0-.3,0-.2-.3a2.72,2.72,0,0,1,3.23-1.78A2.17,2.17,0,0,1,37.05,8.1C37.08,8.3,36.94,8.25,36.83,8.25Z"/><path d="M57.5,7.67A3.05,3.05,0,0,0,54.82,4.5a7.67,7.67,0,0,0-4.63.83c-.13.06-.13.13-.08.25l.36.9c.25.61.25.61.84.31a.28.28,0,0,1,.27-.11l.22-.08a5.46,5.46,0,0,1,2.4-.34A1.37,1.37,0,0,1,55.58,7.6c0,.21,0,.3-.28.27a9.12,9.12,0,0,0-1.81,0A4.73,4.73,0,0,0,50.68,9a2.85,2.85,0,0,0-.84,3.16,2.53,2.53,0,0,0,2.36,1.79,4.15,4.15,0,0,0,3.44-1c.14-.13.19-.08.21.08s.07.38.08.57.1.23.26.22h1c.22,0,.28-.06.28-.28C57.49,11.59,57.5,9.63,57.5,7.67Zm-2,2.1a2.49,2.49,0,0,1-3,2.36,1,1,0,0,1-.86-.63A1.18,1.18,0,0,1,52,10.3a2.48,2.48,0,0,1,1.38-.66,5.06,5.06,0,0,1,1.23-.07h.81C55.52,9.57,55.56,9.63,55.54,9.77Z"/><path d="M17.68,13.62c0-2.07,0-4.14,0-6.2a2.84,2.84,0,0,0-1.88-2.7,3.69,3.69,0,0,0-1.22-.29,8.19,8.19,0,0,0-4.16.89c-.14.07-.15.14-.1.27.16.38.32.76.47,1.14s.09.36.46.19a5.83,5.83,0,0,1,3.12-.66A1.41,1.41,0,0,1,15.63,7a.83.83,0,0,1,.14.59c.05.22,0,.29-.24.25l-.32,0a7.62,7.62,0,0,0-3,.36,3.15,3.15,0,0,0-2.33,2.87,2.59,2.59,0,0,0,1.93,2.75,4.51,4.51,0,0,0,2.39,0A3.67,3.67,0,0,0,15.8,13c0-.05.11-.12.18-.1s.05.12.06.19.05.38.08.57.06.19.2.19H17.5c.13,0,.19-.05.18-.19ZM15.74,9.73a2.54,2.54,0,0,1-2.55,2.45,3.12,3.12,0,0,1-.44,0,1,1,0,0,1-.85-.61,1.18,1.18,0,0,1,.24-1.2,2.09,2.09,0,0,1,1.06-.6,7.38,7.38,0,0,1,2.39-.15C15.7,9.58,15.76,9.6,15.74,9.73Z"/></g></g></svg>