<svg xmlns="http://www.w3.org/2000/svg" viewBox="0 0 44.42 22.06"><g id="Capa_2" data-name="Capa 2"><g id="Capa_1-2" data-name="Capa 1"><path d="M23,4.41a13,13,0,0,0-3.17,3.68c.05-.18.07-.36.12-.53s.11-.5.16-.75a5.71,5.71,0,0,1,.41-1.27,6.8,6.8,0,0,1,1-1.61,6.44,6.44,0,0,1,1.71-1.5,6.13,6.13,0,0,1,1-.46A16.93,16.93,0,0,0,26,1.18a5.31,5.31,0,0,0,.9-.58A3.64,3.64,0,0,0,27.4.07s0-.06.07-.07,0,.05,0,.08c0,.25,0,.51,0,.76a1.93,1.93,0,0,0,0,.24,7.81,7.81,0,0,1-.41,2.54,7.78,7.78,0,0,1-1.41,2.55A8.29,8.29,0,0,1,24,7.71a6,6,0,0,1-2.36,1,4.53,4.53,0,0,1-1.6,0h0c-.1,0-.11,0-.05-.12q.32-.51.66-1c.4-.58.8-1.15,1.23-1.71A15.12,15.12,0,0,1,23,4.48S23,4.45,23,4.41Z"/><path d="M1.8,10.78c0,.26-.08.52-.13.77-.17,1.06-.35,2.12-.52,3.17,0,.12,0,.13-.16.13H.07s-.08,0-.07-.09l0-.16.63-3.43c.15-.82.29-1.64.44-2.46,0,0,0-.05,0-.08a.09.09,0,0,1,.09-.08H3c.15,0,.15,0,.2.14.32,1,.65,1.89,1,2.83.13.4.27.79.4,1.18a.16.16,0,0,0,.06.09c0-.14,0-.27.07-.4.2-1.21.4-2.43.61-3.64,0-.2,0-.2.23-.2H6.4c.11,0,.12,0,.1.12l0,.2c-.22,1.2-.45,2.41-.67,3.61-.13.73-.27,1.46-.4,2.19a.09.09,0,0,0,0,.05c0,.13,0,.13-.16.13H3.31c-.14,0-.14,0-.18-.12L2,11.25c0-.13-.09-.26-.13-.4S1.85,10.8,1.8,10.78Z"/><path d="M32.86,10.59s0,0,0-.05a1.68,1.68,0,0,1,1.17-.72,3,3,0,0,1,.94,0,1.58,1.58,0,0,1,.37.11.94.94,0,0,1,.53.76,2.68,2.68,0,0,1-.06.89c-.07.41-.18.82-.28,1.23,0,.23-.1.45-.14.69a2.36,2.36,0,0,0,0,.38.43.43,0,0,0,.33.41c.11,0,.12.05.07.15a.86.86,0,0,1-.42.42,1.6,1.6,0,0,1-1.25.11.89.89,0,0,1-.64-.89,3.72,3.72,0,0,1,.08-.67c.08-.38.17-.76.26-1.14a7.92,7.92,0,0,0,.19-1,3.24,3.24,0,0,0,0-.44.39.39,0,0,0-.09-.23.29.29,0,0,0-.31-.08.57.57,0,0,0-.34.23,1.73,1.73,0,0,0-.28.6,9.73,9.73,0,0,0-.24,1.07c-.14.75-.29,1.49-.43,2.24v0c0,.12,0,.13-.15.14L31.4,15l-.85.08h-.07c-.05,0-.07,0-.06-.07a1.55,1.55,0,0,1,0-.21c.26-1.35.53-2.69.8-4l.12-.62c0-.13,0-.13.15-.14L32.8,9.8h0c.13,0,.15,0,.13.13l-.09.58A.08.08,0,0,0,32.86,10.59Z"/><path d="M14.55,13.82a7.34,7.34,0,0,1,.1-.93c.17-.92.34-1.84.5-2.76a.64.64,0,0,1,0-.07c0-.06,0-.09.1-.1L16,9.89l.87-.09c.21,0,.23,0,.19.19-.2,1-.41,1.95-.6,2.93a5.08,5.08,0,0,0-.12,1.1.54.54,0,0,0,.05.22.24.24,0,0,0,.22.16.62.62,0,0,0,.57-.32,1.77,1.77,0,0,0,.21-.49c.09-.31.13-.63.19-.95L18,10.4l.06-.34c0-.07.05-.09.11-.1l1-.1.61-.06c.18,0,.19,0,.16.17-.14.76-.29,1.52-.43,2.28l-.24,1.29a2.17,2.17,0,0,0,0,.36.43.43,0,0,0,.3.39h.05c.08,0,.09,0,.05.12a.63.63,0,0,1-.13.2,1.28,1.28,0,0,1-.71.39A1.49,1.49,0,0,1,18,15a.82.82,0,0,1-.45-.37c0-.08-.05-.08-.11,0a1.92,1.92,0,0,1-1.07.44,2.65,2.65,0,0,1-.93,0,1.08,1.08,0,0,1-.62-.31.91.91,0,0,1-.24-.44A1.21,1.21,0,0,1,14.55,13.82Z"/><path d="M42,9.79a1.92,1.92,0,0,1,.57.05.48.48,0,0,1,.17.05.73.73,0,0,0,.46,0l1.07-.13c.16,0,.17,0,.14.15l-.66,3.55c0,.1,0,.2,0,.3a.47.47,0,0,0,.36.5c.08,0,.09,0,.06.11a.81.81,0,0,1-.34.39,1.5,1.5,0,0,1-1.35.15.76.76,0,0,1-.41-.34c-.05-.08-.06-.08-.12,0a2.16,2.16,0,0,1-1.66.45,1.6,1.6,0,0,1-.43-.11,1.2,1.2,0,0,1-.67-.69,2.39,2.39,0,0,1-.14-.6,4.21,4.21,0,0,1,.17-1.8,2.84,2.84,0,0,1,1.09-1.54,2.65,2.65,0,0,1,1.21-.47A2.8,2.8,0,0,1,42,9.79Zm-1.2,3.92V14a.48.48,0,0,0,.06.24.23.23,0,0,0,.17.13.51.51,0,0,0,.44-.11.8.8,0,0,0,.15-.17,2.1,2.1,0,0,0,.32-.84c.09-.53.18-1,.28-1.57l.18-1.06a.11.11,0,0,0,0-.15.66.66,0,0,0-.94.18,2.12,2.12,0,0,0-.25.6,7.66,7.66,0,0,0-.21,1A9.41,9.41,0,0,0,40.79,13.71Z"/><path d="M28,9.79a2.15,2.15,0,0,1,.67.07.2.2,0,0,1,.11,0,.76.76,0,0,0,.47,0l1.07-.13c.14,0,.16,0,.13.14l-.36,1.91c-.11.56-.21,1.12-.31,1.68a.94.94,0,0,0,0,.41.45.45,0,0,0,.32.36c.11,0,.12,0,.07.13a.84.84,0,0,1-.28.34,1.53,1.53,0,0,1-1.39.19.78.78,0,0,1-.42-.36c-.05-.08-.05-.08-.12,0a2.18,2.18,0,0,1-1.65.45,1.41,1.41,0,0,1-.72-.27,1.35,1.35,0,0,1-.4-.57,2.53,2.53,0,0,1-.15-.82,4.15,4.15,0,0,1,.3-1.84A2.78,2.78,0,0,1,28,9.79Zm-1.17,3.94V14a.53.53,0,0,0,.06.24.23.23,0,0,0,.17.13.51.51,0,0,0,.46-.12,1.15,1.15,0,0,0,.14-.17,2.21,2.21,0,0,0,.31-.82l.33-1.89c.05-.25.09-.49.14-.74,0-.07,0-.13-.06-.16a.88.88,0,0,0-.47-.11.56.56,0,0,0-.44.25,2.06,2.06,0,0,0-.21.42,6.73,6.73,0,0,0-.23.91A10.54,10.54,0,0,0,26.86,13.73Z"/><path d="M9.29,9.79a2.25,2.25,0,0,1,.92.15.26.26,0,0,0,.15,0L11.6,9.8h0c.13,0,.15,0,.12.12-.09.47-.17.94-.26,1.41-.14.72-.27,1.44-.41,2.16l0,.26A.74.74,0,0,0,11,14a.42.42,0,0,0,.33.33c.09,0,.1.05.06.14a.68.68,0,0,1-.26.32,1.48,1.48,0,0,1-1.42.2.76.76,0,0,1-.41-.34c0-.08-.06-.08-.13,0a2.15,2.15,0,0,1-1.8.41,1.19,1.19,0,0,1-1-.91,2.55,2.55,0,0,1-.12-.66,4.47,4.47,0,0,1,.21-1.66,3,3,0,0,1,.86-1.32,2.78,2.78,0,0,1,1.27-.61A2.85,2.85,0,0,1,9.29,9.79ZM8.11,13.7V14a.53.53,0,0,0,.06.24.21.21,0,0,0,.17.14.53.53,0,0,0,.37-.06.77.77,0,0,0,.22-.22,2.05,2.05,0,0,0,.32-.83c.1-.52.19-1,.28-1.58.06-.35.12-.7.19-1.06a.12.12,0,0,0-.06-.15.65.65,0,0,0-.93.18,2.14,2.14,0,0,0-.26.6,7,7,0,0,0-.2.93A10.59,10.59,0,0,0,8.11,13.7Z"/><path d="M36.2,17.33a1.33,1.33,0,0,1-.65-.13.89.89,0,0,1-.45-.52c0-.09,0-.11.07-.12A.92.92,0,0,0,35.9,16a3.44,3.44,0,0,0,.3-.81c.15-.59.25-1.19.36-1.79.19-1,.37-2,.56-3.05,0-.21,0-.2.25-.22l1-.12.51,0H39c.08,0,.09,0,.08.1s-.05.32-.08.47c-.18,1-.35,1.93-.53,2.89-.09.5-.17,1-.28,1.51a6.7,6.7,0,0,1-.42,1.29,2.16,2.16,0,0,1-.58.79A1.42,1.42,0,0,1,36.2,17.33Z"/><path d="M14.61,9.48h-.24c-.11,0-.12,0-.14.11,0,.27-.08.54-.13.81-.08.54-.17,1.08-.25,1.62s-.13.84-.2,1.27a1.41,1.41,0,0,0,0,.41.47.47,0,0,0,.35.44c.08,0,.08,0,.05.13a1,1,0,0,1-.47.57,1.45,1.45,0,0,1-1.13.14.94.94,0,0,1-.63-.6,1.74,1.74,0,0,1-.07-.82c.08-.89.24-1.77.38-2.65l.21-1.3v0c0-.07,0-.09-.08-.09h-.36c-.09,0-.11,0-.1-.12a.36.36,0,0,0,0-.1c0-.1,0-.15.13-.19A6.52,6.52,0,0,0,13.9,7.86c.19-.16.18-.17.43-.17h.13c.08,0,.09,0,.08.09s0,.27-.07.4-.08.41-.11.61,0,.14.11.14H15s.08,0,.07.09L15,9.4a.09.09,0,0,1-.1.08Z"/><path d="M22.38,22.06a10.67,10.67,0,0,1-6.9-2.4c-.3-.24-.58-.5-.86-.77a10.3,10.3,0,0,1-1-1.12.18.18,0,0,1-.05-.07s0-.06,0-.06h.69a.21.21,0,0,1,.2.09,7.08,7.08,0,0,0,.64.7,9.89,9.89,0,0,0,2.14,1.62,10,10,0,0,0,4.13,1.27,8.43,8.43,0,0,0,.87,0A10,10,0,0,0,28,19.54a9.65,9.65,0,0,0,.94-.75,8.81,8.81,0,0,0,1.18-1.26.26.26,0,0,1,.25-.1,2.44,2.44,0,0,0,.38,0h.18s.08,0,.1,0,0,.06,0,.09l-.3.41a10.94,10.94,0,0,1-3.1,2.67,11.44,11.44,0,0,1-2.09.92,10.4,10.4,0,0,1-1.84.4A11,11,0,0,1,22.38,22.06Z"/><path d="M22.58,10.57l.19-.26a1.45,1.45,0,0,1,1.06-.52,1.78,1.78,0,0,1,.46,0,.93.93,0,0,1,.86.88,1.43,1.43,0,0,1-.24,1.08,1.26,1.26,0,0,1-1.42.46.37.37,0,0,1-.14-.07c-.06,0-.07-.06,0-.13a3.55,3.55,0,0,0,.21-.44,1.74,1.74,0,0,0,.12-.71.53.53,0,0,0,0-.13.26.26,0,0,0-.33-.21.53.53,0,0,0-.29.19,1.89,1.89,0,0,0-.32.67,9.63,9.63,0,0,0-.21,1.07c-.12.75-.24,1.49-.37,2.24,0,.13,0,.14-.16.16l-.84.08-.85.08h-.05c-.08,0-.1,0-.09-.1l.06-.34c.24-1.21.47-2.42.71-3.62.05-.3.11-.6.17-.89,0-.12,0-.12.13-.13l1.32-.16h0c.1,0,.12,0,.1.11s-.05.35-.08.53A.22.22,0,0,0,22.58,10.57Z"/><path d="M24.27,1.34l-.13,0a12.26,12.26,0,0,0-1.59-.17c-.31,0-.61,0-.92,0a10.24,10.24,0,0,0-2,.32,10.52,10.52,0,0,0-1.73.63,10.1,10.1,0,0,0-1.76,1,10.56,10.56,0,0,0-.82.68,10.15,10.15,0,0,0-1.6,1.87,10.48,10.48,0,0,0-1.06,2.05c-.08.21,0,.19-.27.19H12c-.12,0-.13,0-.09-.13.1-.31.23-.62.36-.92a11.19,11.19,0,0,1,1.34-2.23A12.09,12.09,0,0,1,15,3.2,11.1,11.1,0,0,1,16.71,2,11,11,0,0,1,19.4.81,10.3,10.3,0,0,1,21,.5c.27,0,.53,0,.8-.06l.49,0a11.25,11.25,0,0,1,2.88.41h.06s0,0,0,.07a.69.69,0,0,1-.13.11A1.8,1.8,0,0,1,24.27,1.34Z"/><path d="M32.54,8.77h-.22c-.13,0-.13,0-.17-.13s-.06-.21-.1-.32A10,10,0,0,0,30.17,4.9a10.46,10.46,0,0,0-1.91-1.79h0a.23.23,0,0,1-.13-.29,2,2,0,0,0,0-.55s0-.07,0-.09.07,0,.1,0a10.68,10.68,0,0,1,.87.63,12,12,0,0,1,.92.82,11.13,11.13,0,0,1,1.81,2.4,11,11,0,0,1,1,2.54c0,.17,0,.18-.14.18Z"/><path d="M19.42,6.25a3.77,3.77,0,0,1-.29,1.36c0,.11-.06.11-.14,0A2.75,2.75,0,0,1,17.71,5.8a3.36,3.36,0,0,1,0-1.34,3.38,3.38,0,0,1,.18-.62c0-.1,0-.1.13,0a2.92,2.92,0,0,1,1.3,1.84A3.18,3.18,0,0,1,19.42,6.25Z"/><path d="M38.28,9.37a1.76,1.76,0,0,1-.64-.15A.76.76,0,0,1,37.47,8,1.12,1.12,0,0,1,38,7.75a1.5,1.5,0,0,1,.73,0,.78.78,0,0,1,.06,1.48l-.24.07Z"/><path d="M29,17l-.11.08a.31.31,0,0,1-.5-.2.87.87,0,0,1,.19-.71.42.42,0,0,1,.28-.16.31.31,0,0,1,.25.07c.08.06.08.06.1,0s0-.25.08-.37,0-.08.06-.09.16,0,.13.12L29.17,17a.24.24,0,0,1,0,.08.09.09,0,0,1-.1.07c-.05,0-.07,0-.07-.09A0,0,0,0,0,29,17Zm-.41-.27v.07a.16.16,0,0,0,.26.14.69.69,0,0,0,.26-.63.19.19,0,0,0-.22-.12.27.27,0,0,0-.17.13A.74.74,0,0,0,28.55,16.72Z"/><path d="M21.36,16.16a.46.46,0,0,1,.18-.13.3.3,0,0,1,.43.24.89.89,0,0,1-.16.67.45.45,0,0,1-.25.18.33.33,0,0,1-.34-.08,0,0,0,0,0,0,0c0,.16-.06.32-.1.48s-.06.12-.16.1-.05,0-.05-.06l0-.17c.09-.41.18-.81.26-1.22a.64.64,0,0,0,0-.07.1.1,0,0,1,.12-.05c.05,0,.06,0,.05.09A0,0,0,0,0,21.36,16.16Zm.41.25c0-.08,0-.18-.1-.22a.2.2,0,0,0-.24.08.71.71,0,0,0-.19.5.17.17,0,0,0,.11.17.18.18,0,0,0,.21,0,.47.47,0,0,0,.13-.15A1.05,1.05,0,0,0,21.77,16.41Z"/><path d="M11.4,15.66a.8.8,0,0,1,.26,0,.31.31,0,0,1,.25.32.48.48,0,0,1-.46.54h-.2a.11.11,0,0,0-.11.1c0,.12-.05.24-.08.35s0,.09-.07.1-.15,0-.13-.12c.08-.41.17-.81.26-1.22,0-.1,0-.11.13-.11Zm-.06.72h.1a.31.31,0,0,0,.27-.31.19.19,0,0,0-.2-.21h-.12a.09.09,0,0,0-.1.09c0,.11,0,.23-.07.34s0,.09.08.1Z"/><path d="M24.74,17a.64.64,0,0,1-.17.13.3.3,0,0,1-.46-.21.87.87,0,0,1,.19-.73.45.45,0,0,1,.24-.14.3.3,0,0,1,.3.07s0,.05.06.05,0-.05.06-.07a.1.1,0,0,1,.12,0c.05,0,0,.06,0,.09-.07.3-.13.6-.2.91,0,0,0,.08-.08.09S24.74,17.1,24.74,17Zm-.43-.24v0a.17.17,0,0,0,.3.14.63.63,0,0,0,.21-.56.17.17,0,0,0-.24-.14.23.23,0,0,0-.1.07A.66.66,0,0,0,24.31,16.72Z"/><path d="M19.64,16.13s0-.06.06-.08a.09.09,0,0,1,.11,0,.07.07,0,0,1,0,.09c-.07.31-.13.62-.2.92,0,0,0,.06-.05.08a.08.08,0,0,1-.12-.08s0,0,0-.05,0,0-.06.05a.61.61,0,0,1-.18.09.3.3,0,0,1-.38-.21A1,1,0,0,1,19,16.2a.52.52,0,0,1,.27-.19.32.32,0,0,1,.31.07S19.6,16.13,19.64,16.13Zm-.6.6v.05a.17.17,0,0,0,.1.17.16.16,0,0,0,.17,0,.63.63,0,0,0,.24-.59.16.16,0,0,0-.21-.14.24.24,0,0,0-.12.07A.66.66,0,0,0,19,16.73Z"/><path d="M28,16.13s0,0,0-.06a.1.1,0,0,1,.13-.05s0,.06,0,.1c-.06.3-.13.6-.19.9,0,0,0,.05,0,.07s-.06,0-.1,0,0,0,0-.07,0,0,0-.06a.17.17,0,0,0-.08.06.47.47,0,0,1-.22.09.28.28,0,0,1-.31-.2.84.84,0,0,1,.26-.84.34.34,0,0,1,.5,0Zm-.61.59a.22.22,0,0,0,0,.08c0,.15.13.2.26.12l.09-.07a.71.71,0,0,0,.16-.34.91.91,0,0,0,0-.17.17.17,0,0,0-.26-.14.36.36,0,0,0-.16.14A1,1,0,0,0,27.41,16.72Z"/><path d="M14.72,16.14s0-.05.06-.07A.09.09,0,0,1,14.9,16c.06,0,0,.06,0,.1-.06.3-.12.61-.19.91,0,0,0,.08-.08.08s-.09,0-.09-.06V17s-.06,0-.08,0a.42.42,0,0,1-.17.1.28.28,0,0,1-.37-.19.59.59,0,0,1,0-.26.8.8,0,0,1,.24-.55.37.37,0,0,1,.41-.1A.41.41,0,0,1,14.72,16.14Zm-.06.24a.22.22,0,0,0-.1-.18.2.2,0,0,0-.21,0,.33.33,0,0,0-.14.17,1.16,1.16,0,0,0-.08.32c0,.09,0,.18.09.23a.21.21,0,0,0,.25-.08h0A.9.9,0,0,0,14.66,16.38Z"/><path d="M16.19,15.56h.09s.1,0,.1.08,0,.09-.12.09-.21,0-.24.19,0,.07.06.08h.05s.08,0,.08.06a.09.09,0,0,1-.08.1h0c-.11,0-.13,0-.16.14,0,.3-.12.59-.18.89a.7.7,0,0,1-.09.24.3.3,0,0,1-.32.14.09.09,0,0,1-.07-.14s0,0,.05,0,.18,0,.21-.18.06-.28.09-.42.08-.35.11-.52,0-.1-.07-.12-.07,0-.07-.05,0-.05.06-.07h0a.15.15,0,0,0,.13-.14c0-.05,0-.09,0-.14A.33.33,0,0,1,16.19,15.56Z"/><path d="M31.43,16.69a.92.92,0,0,1,.16-.49.49.49,0,0,1,.55-.17.35.35,0,0,1,.25.34.8.8,0,0,1-.17.58.48.48,0,0,1-.57.14A.4.4,0,0,1,31.43,16.69Zm.75-.21v-.1a.19.19,0,0,0-.24-.19.22.22,0,0,0-.17.09.64.64,0,0,0-.13.48.21.21,0,0,0,.34.16.34.34,0,0,0,.12-.12A.76.76,0,0,0,32.18,16.48Z"/><path d="M32.91,16.17a.64.64,0,0,1,.17-.13.47.47,0,0,1,.17,0,.26.26,0,0,1,.28.31,1.87,1.87,0,0,1,0,.25c0,.15-.07.3-.1.45s0,.1-.1.11-.12,0-.1-.12.08-.37.11-.56a.59.59,0,0,0,0-.14c0-.09,0-.14-.15-.12a.3.3,0,0,0-.2.13.81.81,0,0,0-.15.31c0,.13,0,.27-.08.4s0,.1-.12.1-.1,0-.09-.11c.07-.3.13-.6.2-.9,0,0,0-.08.06-.09s.12,0,.12.09Z"/><path d="M22.76,17s-.06,0-.09.06a.56.56,0,0,1-.18.07.27.27,0,0,1-.33-.29.77.77,0,0,1,0-.15l.12-.56s0-.09.06-.11a.19.19,0,0,1,.13,0s0,.07,0,.11-.07.35-.11.53a.88.88,0,0,0,0,.16c0,.1.06.14.16.12a.32.32,0,0,0,.2-.12.83.83,0,0,0,.14-.3l.09-.42c0-.08.06-.1.14-.09s.07,0,.06.08a.09.09,0,0,1,0,0L23,17s0,.09-.07.11S22.79,17.11,22.76,17Z"/><path d="M17.64,17a.72.72,0,0,1-.22.15.28.28,0,0,1-.22,0,.22.22,0,0,1-.17-.21.48.48,0,0,1,0-.17c0-.21.09-.42.14-.63s0-.09.11-.09.11,0,.09.1-.08.4-.13.6c0,0,0,0,0,.06s.07.22.21.16a.44.44,0,0,0,.19-.17.84.84,0,0,0,.11-.3c0-.12.05-.24.08-.36s0-.09.09-.09.12,0,.1.11l-.18.88,0,.07a.07.07,0,0,1-.09,0,.05.05,0,0,1-.06-.06A.78.78,0,0,1,17.64,17Z"/><path d="M12.6,17l-.13.09a.33.33,0,0,1-.29.05.21.21,0,0,1-.18-.21.48.48,0,0,1,0-.17c0-.21.09-.42.13-.63a.14.14,0,0,1,0-.08.17.17,0,0,1,.14,0s0,.07,0,.1l-.12.59s0,0,0,.06a.14.14,0,0,0,.05.16c.05,0,.11,0,.17,0a.49.49,0,0,0,.18-.17,1,1,0,0,0,.1-.29c0-.12.06-.25.08-.37a.1.1,0,0,1,.1-.09c.09,0,.12,0,.1.11-.06.29-.12.59-.19.88a.13.13,0,0,1,0,.06.08.08,0,0,1-.1,0s-.07,0-.07-.07S12.62,17,12.6,17Z"/><path d="M18.46,17.14a.26.26,0,0,1-.28-.3c0-.16.06-.31.1-.47s0-.06,0-.09,0-.09-.06-.1-.06,0-.06,0a.06.06,0,0,1,0-.08.37.37,0,0,0,.22-.22.13.13,0,0,1,.07-.06s.09,0,.08.07,0,.05,0,.08,0,.08.07.08h.08s.08,0,.08.05,0,.09-.06.1h-.13a.09.09,0,0,0-.11.09c0,.17-.08.34-.11.51a.13.13,0,0,0,0,.06c0,.09,0,.13.13.12s.09,0,.11,0a.09.09,0,0,1-.08.12Z"/><path d="M26.12,17s.08,0,.09,0a.09.09,0,0,1-.05.12.3.3,0,0,1-.29,0,.24.24,0,0,1-.1-.27c0-.17.07-.35.11-.52s0-.09-.08-.12a.06.06,0,0,1,0-.1l0,0a.3.3,0,0,0,.21-.2s0,0,.06-.06.1,0,.1.06-.05.11,0,.15.09,0,.14,0,.09,0,.09.06,0,.09-.08.1h-.13c-.05,0-.09,0-.1.08s-.08.36-.11.55S26,17,26.12,17Z"/><path d="M30.22,16.68c0,.22.11.31.31.27l.11,0c.05,0,.07,0,.08.06a.12.12,0,0,1-.08.12.52.52,0,0,1-.44,0,.36.36,0,0,1-.19-.37.84.84,0,0,1,.14-.48.54.54,0,0,1,.63-.2s.08,0,.06.09,0,.09-.1.08h0a.35.35,0,0,0-.43.24A.74.74,0,0,0,30.22,16.68Z"/><path d="M26.78,16.13s.07-.05.1-.07A.35.35,0,0,1,27.1,16s.09,0,.09.07,0,.12-.09.12c-.25,0-.34.17-.4.37a3.27,3.27,0,0,0-.1.45c0,.09-.06.12-.15.11a.07.07,0,0,1-.06-.09c0-.09,0-.18.05-.28s.09-.42.14-.64.07-.11.14-.09S26.75,16.09,26.78,16.13Z"/><path d="M13.49,16.16a.65.65,0,0,1,.2-.15h.11c.07,0,.1,0,.1.07a.1.1,0,0,1-.09.12.36.36,0,0,0-.35.24,1.35,1.35,0,0,0-.09.33l-.06.26c0,.09-.07.11-.16.09s-.05,0-.05-.06a.5.5,0,0,0,0-.12c.06-.25.11-.51.16-.76l0-.09s0-.06.1-.06.07,0,.07.08A.18.18,0,0,0,13.49,16.16Z"/><path d="M23.66,16.16a.34.34,0,0,0,.09-.08A.35.35,0,0,1,24,16c.08,0,.11,0,.11.06s0,.13-.1.13-.28.11-.35.26a2.22,2.22,0,0,0-.13.49.43.43,0,0,0,0,.11s0,.06-.09.07-.13,0-.11-.12c.06-.29.13-.58.19-.87,0-.05,0-.09.06-.11S23.66,16,23.66,16.16Z"/><path d="M16.56,16.17l.14-.12a.29.29,0,0,1,.2-.05s.09,0,.09.07,0,.12-.09.12c-.26,0-.35.17-.41.37a3.58,3.58,0,0,0-.09.45c0,.1-.06.11-.16.1a.05.05,0,0,1-.06-.06.17.17,0,0,0,0-.07c.07-.29.13-.57.19-.86,0,0,0-.06,0-.08a.11.11,0,0,1,.11,0s0,.05,0,.08Z"/><path d="M29.56,17.12c-.08,0-.1,0-.09-.1.07-.31.13-.62.2-.93a.14.14,0,0,1,.19-.06,0,0,0,0,1,0,.06c0,.05,0,.1,0,.14-.06.26-.11.52-.17.78C29.66,17.1,29.64,17.12,29.56,17.12Z"/><path d="M31,17.12c-.09,0-.11,0-.09-.11.06-.3.12-.6.19-.9,0,0,0-.09.08-.09s.14,0,.12.12c-.06.29-.13.58-.19.87C31.08,17.1,31.06,17.12,31,17.12Z"/><path d="M20.09,16.85c.1,0,.12,0,.07.13L20,17.3s0,.05-.06.06a.09.09,0,0,1-.1,0s0-.06,0-.09l.14-.33C20,16.86,20,16.85,20.09,16.85Z"/><path d="M32.24,15.56h.06s.06,0,0,.07a1.39,1.39,0,0,1-.28.26h0a.08.08,0,0,1-.07,0,.07.07,0,0,1,0-.06l.17-.22A.16.16,0,0,1,32.24,15.56Z"/><path d="M31.39,15.72a.14.14,0,0,1-.13.15.12.12,0,0,1-.11-.11.14.14,0,0,1,.13-.14A.11.11,0,0,1,31.39,15.72Z"/><path d="M30,15.73a.12.12,0,0,1-.12.13.1.1,0,0,1-.1-.11.13.13,0,0,1,.12-.13A.1.1,0,0,1,30,15.73Z"/></g></g></svg>