<svg xmlns="http://www.w3.org/2000/svg" xmlns:xlink="http://www.w3.org/1999/xlink" viewBox="0 0 45.3 16.31"><defs><style>.cls-1{fill:none;}.cls-2{clip-path:url(#clip-path);}.cls-3{fill:#050505;}.cls-4{fill:#020202;}</style><clipPath id="clip-path" transform="translate(-0.1 0.02)"><rect id="SVGID" class="cls-1" width="45.34" height="16.29"/></clipPath></defs><g id="Capa_2" data-name="Capa 2"><g id="Capa_1-2" data-name="Capa 1"><g class="cls-2"><path class="cls-3" d="M7.11,0a6.92,6.92,0,0,0-7,6.83v9.07a.4.4,0,0,0,.4.41H3.88a.41.41,0,0,0,.41-.41V13.59a.17.17,0,0,1,.25-.15A6.81,6.81,0,0,0,7,13.89a6.9,6.9,0,0,0,6.87-7A6.94,6.94,0,0,0,7.11,0ZM9.28,9.85a3.22,3.22,0,0,1-2.1.7,3.17,3.17,0,0,1-2.5-1A3.65,3.65,0,0,1,3.78,7a3.65,3.65,0,0,1,.9-2.6,3.24,3.24,0,0,1,2.5-1,3.18,3.18,0,0,1,2.05.7A2.78,2.78,0,0,1,10.18,6H8.68A1.55,1.55,0,0,0,7.13,4.7a1.47,1.47,0,0,0-1.3.65A2.41,2.41,0,0,0,5.33,7a2.5,2.5,0,0,0,.5,1.65,1.59,1.59,0,0,0,1.3.65A1.57,1.57,0,0,0,8.73,8h1.5A2.78,2.78,0,0,1,9.28,9.85Z" transform="translate(-0.1 0.02)"/><path class="cls-4" d="M16.53,13.06a1.86,1.86,0,0,1-.42-1.2,1.81,1.81,0,0,1,.42-1.21,1.55,1.55,0,0,1,1.15-.47,1.49,1.49,0,0,1,.95.32,1.23,1.23,0,0,1,.47.84h-.58a.86.86,0,0,0-.89-.69.87.87,0,0,0-.73.32,1.21,1.21,0,0,0-.27.89,1.59,1.59,0,0,0,.27.89.86.86,0,0,0,.73.31.85.85,0,0,0,.89-.68h.58a1.23,1.23,0,0,1-.47.84,1.49,1.49,0,0,1-.95.32,1.8,1.8,0,0,1-1.15-.48Z" transform="translate(-0.1 0.02)"/><path class="cls-4" d="M20.48,13.48a1,1,0,0,1-.86-.36,1.16,1.16,0,0,1-.31-.86,1,1,0,0,1,.36-.87,1.24,1.24,0,0,1,.86-.36,1.06,1.06,0,0,1,.87.36,1.24,1.24,0,0,1,.36.87,1.16,1.16,0,0,1-.31.86,1.4,1.4,0,0,1-1,.36Zm0-.41a.65.65,0,0,0,.51-.2.74.74,0,0,0,.21-.56.73.73,0,0,0-.21-.56.63.63,0,0,0-.51-.21.65.65,0,0,0-.51.21.76.76,0,0,0-.2.56.78.78,0,0,0,.2.56.68.68,0,0,0,.51.2Z" transform="translate(-0.1 0.02)"/><path class="cls-4" d="M22.1,13.53V10.29h.48v3.24Z" transform="translate(-0.1 0.02)"/><path class="cls-4" d="M24.1,13.48a1,1,0,0,1-.86-.36,1.16,1.16,0,0,1-.31-.86,1,1,0,0,1,.36-.87,1.24,1.24,0,0,1,.86-.36,1.06,1.06,0,0,1,.87.36,1.24,1.24,0,0,1,.36.87,1.21,1.21,0,0,1-.31.86,1.41,1.41,0,0,1-1,.36Zm0-.41a.65.65,0,0,0,.51-.2.78.78,0,0,0,.21-.56.77.77,0,0,0-.21-.56.63.63,0,0,0-.51-.21.64.64,0,0,0-.51.21.76.76,0,0,0-.2.56.78.78,0,0,0,.2.56.66.66,0,0,0,.51.2Z" transform="translate(-0.1 0.02)"/><path class="cls-4" d="M29.24,12.12v1.31h-.47V12.16c0-.41-.18-.62-.54-.62a.46.46,0,0,0-.41.21.56.56,0,0,0-.1.51v1.27h-.57V12.21c0-.41-.14-.62-.5-.62a.48.48,0,0,0-.41.21.79.79,0,0,0-.14.51v1.31h-.57V11.24h.41l0,.31a.91.91,0,0,1,.73-.36.75.75,0,0,1,.72.41.86.86,0,0,1,.82-.41c.57-.1,1,.21,1,.93Z" transform="translate(-0.1 0.02)"/><path class="cls-4" d="M31.63,11.42a1.25,1.25,0,0,1,.28.87,1.29,1.29,0,0,1-.28.88,1,1,0,0,1-.77.36.79.79,0,0,1-.71-.36l0,.36h-.38V10.29h.48v1.23a.83.83,0,0,1,.71-.36.89.89,0,0,1,.72.26Zm-.29,1.45a1.08,1.08,0,0,0,.2-.56.69.69,0,0,0-.2-.56.65.65,0,0,0-.51-.21.63.63,0,0,0-.51.21,1.06,1.06,0,0,0-.21.56.78.78,0,0,0,.21.56.59.59,0,0,0,.51.2.6.6,0,0,0,.51-.2Z" transform="translate(-0.1 0.02)"/><path class="cls-4" d="M32.66,10.78a.26.26,0,0,1-.2-.1.26.26,0,0,1-.1-.21.26.26,0,0,1,.1-.2.38.38,0,0,1,.2-.1.28.28,0,0,1,.21.1.38.38,0,0,1,.1.2.35.35,0,0,1-.31.31Zm-.27,2.75V11.15h.47v2.38Z" transform="translate(-0.1 0.02)"/><path class="cls-4" d="M35.53,13v.49h-.24a.34.34,0,0,1-.38-.38.81.81,0,0,1-.71.43.79.79,0,0,1-.81-.76c0-.55.33-.82,1-.82h.53v-.14c0-.24-.22-.38-.53-.38s-.53.14-.53.33h-.53a.69.69,0,0,1,.32-.52,1.22,1.22,0,0,1,.74-.19c.63,0,1,.28,1,.81v1c0,.11,0,.16.14.16l.05-.05Zm-.66-.66h-.62c-.3,0-.45.11-.45.36s.15.36.45.36a.59.59,0,0,0,.46-.16.61.61,0,0,0,.16-.45v-.11Z" transform="translate(-0.1 0.02)"/><path class="cls-4" d="M25,6.7c0,.81-.3,1.22-.95,1.22s-1-.41-1-1.22V4.1H21.72V6.7A2,2,0,0,0,24,9,2,2,0,0,0,26.29,6.7V4.1H25V6.7Z" transform="translate(-0.1 0.02)"/><path class="cls-4" d="M18.69,2.29h-2.5V9h1.43V6.86h1.07a2.29,2.29,0,1,0,0-4.57ZM18.5,5.72h-1V3.52h1a1.16,1.16,0,0,1,1.16,1.26A1,1,0,0,1,18.5,5.72Z" transform="translate(-0.1 0.02)"/><path class="cls-4" d="M29.68,4a2,2,0,0,0-1.54.66L28,4H26.86V8.86h1.43V6.36c0-.86.4-1.32,1.05-1.32s.95.46.95,1.27V8.86h1.34V6.15c0-1.64-.87-2.2-1.95-2.2Z" transform="translate(-0.1 0.02)"/><path class="cls-4" d="M34,7.25V5.14h1.14V4H34V2.67H32.77V4h-.86V5.14h.86V7.48a1.38,1.38,0,0,0,1.38,1.38h1V7.72H34.5C34.16,7.72,34,7.56,34,7.25Z" transform="translate(-0.1 0.02)"/><path class="cls-4" d="M43.32,5.94c-.73-.1-1.15-.1-1.15-.52s.37-.52.89-.52a.92.92,0,0,1,1,.63h1.29c-.05-1-1-1.62-2.33-1.62s-2.13.63-2.13,1.62.88,1.29,2.07,1.4c.78.1,1.15.15,1.15.52s-.37.52-.94.52-1-.31-1.09-.73h-1.3c0,1,1,1.71,2.39,1.71s2.24-.62,2.24-1.61-.94-1.3-2.08-1.4Z" transform="translate(-0.1 0.02)"/><path class="cls-4" d="M38,9a2.66,2.66,0,0,1-1.88-.67,2.49,2.49,0,0,1-.72-1.83,2.5,2.5,0,0,1,.72-1.84A2.54,2.54,0,0,1,38,4a2.63,2.63,0,0,1,1.89.66,2.49,2.49,0,0,1,.71,1.84,2.49,2.49,0,0,1-.71,1.83A2.59,2.59,0,0,1,38,9Zm0-1.07a1.1,1.1,0,0,0,.87-.41,1.65,1.65,0,0,0,.3-1,1.63,1.63,0,0,0-.3-1,1.12,1.12,0,0,0-1.73,0,1.57,1.57,0,0,0-.31,1,1.59,1.59,0,0,0,.31,1A1.1,1.1,0,0,0,38,7.93Z" transform="translate(-0.1 0.02)"/></g></g></g></svg>